<?xml version="1.0" standalone="no"?>
<!DOCTYPE svg PUBLIC "-//W3C//DTD SVG 20010904//EN"
 "http://www.w3.org/TR/2001/REC-SVG-20010904/DTD/svg10.dtd">
<svg version="1.0" xmlns="http://www.w3.org/2000/svg"
 width="786.000000pt" height="1185.000000pt" viewBox="0 0 786.000000 1185.000000"
 preserveAspectRatio="xMidYMid meet">

<g transform="translate(0.000000,1185.000000) scale(0.100000,-0.100000)"
fill="#000000" stroke="none">
<path d="M3605 9693 c-415 -24 -665 -73 -859 -170 -158 -79 -299 -189 -378
-297 -99 -132 -93 -102 -91 -501 l2 -350 100 -1100 c55 -605 110 -1242 122
-1415 21 -326 32 -444 74 -835 14 -126 28 -257 31 -290 25 -263 70 -397 163
-493 73 -75 188 -134 269 -140 31 -2 230 17 442 42 1199 143 1431 176 1484
207 46 27 74 86 87 185 12 93 182 4433 177 4515 -13 187 -204 352 -613 529
-144 62 -283 95 -464 109 -121 10 -415 12 -546 4z m419 -254 c94 -12 218 -50
301 -91 113 -56 273 -159 334 -214 72 -65 139 -181 167 -289 20 -78 20 -300 5
-2930 -7 -1121 -9 -1223 -25 -1260 -19 -45 -67 -90 -111 -104 -89 -29 -1313
-171 -1475 -171 -90 0 -109 3 -173 31 -105 44 -161 102 -192 200 -57 183 -72
307 -134 1129 -48 627 -52 716 -76 1550 -13 487 -28 982 -31 1100 -7 239 11
460 47 577 35 111 183 285 289 337 59 30 223 91 280 105 197 47 558 60 794 30z"/>
<path d="M3560 8765 c0 -8 16 -33 37 -55 66 -74 66 -65 70 -849 3 -386 1 -707
-4 -711 -7 -8 -92 -29 -233 -60 -19 -4 -110 -25 -202 -46 -183 -41 -198 -40
-198 17 0 15 -4 50 -10 76 -5 26 -19 100 -31 163 -27 140 -41 175 -77 194 -16
8 -48 31 -71 50 -58 48 -91 49 -57 1 19 -27 43 -101 66 -203 11 -48 33 -143
49 -212 27 -113 28 -127 15 -152 -18 -34 -10 -51 46 -101 43 -40 74 -46 118
-23 122 62 564 181 747 200 281 30 395 37 465 27 41 -5 76 -14 78 -18 1 -4 15
-33 30 -63 36 -73 61 -75 108 -7 37 54 43 73 114 372 28 121 58 239 67 263
l15 44 -37 54 c-58 84 -129 134 -190 134 -22 0 -23 -1 -10 -42 8 -24 19 -57
26 -75 25 -62 -51 -446 -104 -526 -13 -20 -29 -26 -92 -36 -107 -16 -450 -15
-463 2 -12 15 -20 84 -32 267 -15 246 -11 438 16 773 30 373 30 420 4 457 -21
30 -92 64 -177 86 -68 18 -83 18 -83 -1z"/>
<path d="M4057 8183 c-4 -3 -7 -21 -7 -39 0 -36 -83 -233 -103 -246 -7 -4 -27
-8 -44 -8 -21 0 -33 -5 -33 -14 0 -25 79 -104 111 -111 54 -12 51 -29 -24
-147 -16 -26 -42 -52 -58 -59 -32 -13 -35 -30 -19 -90 19 -67 28 -68 150 -10
61 29 118 51 127 49 9 -2 22 -22 31 -48 28 -86 31 -90 56 -90 31 0 35 6 46 77
13 81 -1 127 -58 186 -25 26 -50 47 -55 47 -5 0 -7 -16 -4 -35 4 -23 1 -40 -9
-49 -14 -15 -140 -33 -151 -22 -4 3 4 21 17 39 32 44 156 182 204 228 35 33
38 40 32 73 -6 29 -14 39 -43 51 -46 20 -63 19 -63 -2 -1 -24 -51 -114 -71
-126 -12 -7 -24 -4 -47 13 -18 13 -32 29 -32 35 0 7 36 49 80 94 84 86 100
117 81 157 -15 34 -95 67 -114 47z"/>
<path d="M3240 8050 c0 -16 -8 -53 -18 -82 -10 -29 -31 -93 -47 -143 -32 -101
-37 -110 -74 -128 -21 -10 -26 -19 -24 -46 4 -86 44 -114 100 -67 94 78 136
51 73 -48 -17 -26 -44 -75 -61 -109 -38 -75 -56 -97 -81 -97 -28 0 -32 -24
-13 -80 20 -59 37 -70 74 -46 14 9 51 29 81 45 30 16 84 54 118 85 35 32 69
55 75 53 7 -2 26 -24 42 -50 17 -26 37 -47 46 -47 37 0 48 89 20 163 -10 26
-105 87 -135 87 -20 0 -20 -13 -1 -51 10 -19 13 -35 7 -45 -12 -22 -161 -79
-173 -67 -10 10 30 77 89 144 21 24 42 53 46 64 4 11 34 64 67 117 44 71 59
103 54 118 -8 25 -43 40 -90 40 -30 0 -34 -4 -47 -42 -15 -49 -41 -66 -118
-75 -75 -9 -69 9 61 170 41 51 49 68 47 96 -3 39 -42 69 -90 70 -24 1 -28 -3
-28 -29z"/>
<path d="M3670 6504 c0 -12 70 -270 86 -317 9 -26 14 -50 12 -53 -3 -2 -110
-27 -239 -54 -203 -44 -507 -112 -620 -141 -79 -20 -69 -44 49 -112 64 -37 90
-44 107 -28 38 34 518 194 623 207 50 6 52 6 52 -16 0 -34 -177 -374 -204
-392 -6 -4 -25 -5 -42 -2 -40 7 -46 -3 -29 -52 14 -42 48 -68 156 -120 70 -33
76 -55 28 -100 -17 -16 -57 -63 -90 -104 -73 -95 -106 -120 -158 -120 -22 0
-43 -5 -46 -10 -3 -6 -1 -45 6 -88 9 -59 18 -82 36 -99 29 -28 60 -29 93 -3
14 11 30 20 37 20 38 1 291 89 374 131 54 27 108 49 119 49 19 0 40 43 27 56
-3 3 -45 1 -94 -6 -48 -6 -115 -12 -148 -14 -33 -2 -97 -7 -142 -11 -58 -6
-83 -5 -83 3 0 13 87 83 167 134 80 51 453 422 453 450 0 31 -42 78 -92 103
-29 15 -60 33 -69 41 -33 30 -56 2 -24 -30 8 -8 15 -22 15 -30 0 -32 -73 -143
-163 -248 -46 -55 -78 -71 -92 -48 -8 13 -92 55 -127 64 -16 3 -28 10 -28 14
0 4 36 38 80 76 90 78 190 215 190 260 0 16 -14 44 -32 67 -17 21 -29 41 -27
43 6 7 314 33 404 35 85 2 203 -10 348 -36 96 -17 137 -10 137 23 0 21 -68 88
-134 132 -58 38 -116 43 -168 13 -28 -16 -63 -20 -238 -25 -113 -4 -218 -8
-235 -9 -34 -2 -33 -13 -20 151 8 89 7 94 -16 118 -13 14 -37 33 -54 42 -57
29 -185 54 -185 36z"/>
<path d="M4075 5311 c-14 -24 128 -256 208 -338 58 -60 84 -67 92 -25 4 15 8
36 11 47 6 31 -45 161 -80 199 -17 20 -65 53 -106 74 -92 47 -116 56 -125 43z"/>
<path d="M4142 3896 c-29 -8 -55 -16 -59 -20 -6 -5 -1 -83 23 -433 l6 -83
-100 0 -100 0 4 43 c2 23 8 88 14 144 8 82 7 108 -5 136 -10 24 -11 37 -4 44
18 18 1 47 -38 69 -182 102 -185 104 -203 94 -10 -6 -30 -10 -45 -10 -31 0
-85 -26 -85 -41 0 -6 5 -19 11 -31 11 -20 62 -305 74 -415 l7 -58 -318 -29
c-176 -15 -392 -36 -480 -46 -250 -29 -672 -46 -744 -32 -55 12 -140 51 -168
79 -27 26 -65 6 -42 -22 26 -32 -30 -42 -68 -12 -7 5 -16 7 -19 3 -8 -8 46
-55 64 -56 6 0 32 -26 56 -57 25 -32 78 -90 119 -129 68 -65 80 -72 144 -88
88 -21 355 -29 541 -16 76 5 208 20 293 34 85 14 189 30 230 36 143 21 195 29
285 45 50 8 111 15 136 15 l46 0 7 -42 c15 -95 79 -365 93 -395 8 -18 21 -33
28 -33 14 0 15 3 37 325 l13 180 110 11 c61 6 113 8 116 5 4 -3 12 -100 19
-215 6 -116 16 -219 22 -230 16 -32 80 -87 94 -82 13 5 34 111 34 172 0 21 7
116 17 210 l16 172 76 6 c42 4 150 14 241 22 131 13 256 15 625 11 480 -5 504
-7 708 -56 113 -27 163 -20 187 24 7 14 17 25 22 25 22 0 2 22 -57 60 -36 23
-65 45 -65 49 0 4 -19 18 -42 31 -24 13 -69 41 -101 63 l-57 40 -69 -13 c-57
-10 -132 -11 -403 -1 -211 8 -464 9 -687 5 l-353 -7 7 84 c4 46 12 90 17 96 6
7 8 20 4 28 -3 9 0 15 9 15 8 0 15 6 15 14 0 8 7 16 15 20 22 8 18 24 -10 51
l-26 23 22 16 c22 15 22 16 4 36 -23 26 -120 90 -135 90 -7 0 -23 9 -37 20
-14 11 -28 20 -32 19 -3 0 -30 -6 -59 -13z"/>
</g>
</svg>
