<?xml version="1.0" standalone="no"?>
<!DOCTYPE svg PUBLIC "-//W3C//DTD SVG 20010904//EN"
 "http://www.w3.org/TR/2001/REC-SVG-20010904/DTD/svg10.dtd">
<svg version="1.0" xmlns="http://www.w3.org/2000/svg"
 width="693.000000pt" height="685.000000pt" viewBox="0 0 693.000000 685.000000"
 preserveAspectRatio="xMidYMid meet">

<g transform="translate(0.000000,685.000000) scale(0.100000,-0.100000)"
fill="#000000" stroke="none">
<path d="M0 3425 l0 -3425 3465 0 3465 0 0 3425 0 3425 -3465 0 -3465 0 0
-3425z m5805 2943 c3 -7 9 -44 14 -83 6 -38 29 -136 52 -217 38 -136 41 -150
26 -166 -8 -9 -19 -30 -23 -47 -3 -16 -17 -62 -30 -102 -13 -39 -24 -76 -24
-81 0 -6 23 -13 51 -17 41 -6 54 -4 60 8 5 8 22 20 39 27 27 11 33 10 51 -6
35 -31 42 -53 29 -84 -12 -29 -62 -60 -98 -60 -20 0 -21 -3 -47 -160 -8 -50
-27 -113 -38 -127 -5 -7 -7 -23 -4 -35 8 -29 -7 -55 -43 -73 -54 -28 -147 -14
-157 25 -6 23 -17 27 -110 35 -53 5 -73 11 -73 21 0 17 -89 19 -184 5 -240
-36 -267 -38 -442 -25 -65 4 -119 2 -185 -9 -52 -9 -133 -21 -182 -27 -107
-13 -126 -21 -157 -68 -14 -20 -50 -71 -81 -112 -70 -95 -71 -97 -75 -133 -2
-16 -28 -105 -58 -196 -81 -246 -80 -241 -72 -320 11 -110 -4 -411 -20 -411
-11 0 -13 49 -13 248 1 238 2 251 29 352 16 58 32 113 35 123 5 13 2 17 -13
17 -12 0 -33 5 -47 12 -21 9 -29 9 -40 -3 -19 -19 2 -63 33 -67 26 -4 20 -22
-8 -22 -24 0 -70 42 -70 64 0 10 -4 14 -10 11 -14 -9 -50 13 -50 30 0 18 21
20 37 4 27 -27 114 28 132 84 6 18 15 75 21 128 10 102 17 129 31 129 13 0 -2
-230 -17 -268 -7 -18 -20 -35 -29 -38 -22 -9 -19 -34 5 -35 11 -1 25 -2 32 -3
14 -1 60 133 52 153 -5 15 77 146 139 220 20 25 37 49 37 54 0 4 -12 19 -27
32 -22 18 -25 26 -16 36 10 10 16 9 29 -2 15 -12 16 -12 10 8 -10 30 1 48 20
32 12 -9 14 -6 14 20 0 21 5 31 15 31 11 0 15 -11 15 -39 0 -36 19 -59 38 -47
12 7 372 55 465 61 76 6 87 5 87 -9 0 -9 5 -16 10 -16 6 0 10 9 10 20 0 25 5
25 31 -1 17 -17 29 -20 63 -16 22 3 109 13 191 22 83 10 155 22 162 27 6 5 19
24 28 43 18 40 33 45 39 13 3 -13 7 -35 10 -50 7 -31 27 -45 71 -49 38 -3 95
10 95 22 0 18 -50 21 -75 5 -29 -19 -45 -20 -45 -3 0 7 16 21 35 31 57 31 43
93 -29 125 -26 11 -46 25 -46 32 0 11 28 9 61 -5 12 -5 19 1 27 23 15 44 36
41 28 -4 -8 -42 7 -47 36 -10 40 51 96 63 183 38 20 -6 20 -5 1 16 -11 11 -16
24 -13 28 4 3 -3 14 -15 24 -17 16 -38 19 -115 19 -81 0 -98 -3 -123 -22 -17
-12 -30 -28 -30 -35 0 -8 -9 -11 -28 -7 -25 5 -27 3 -27 -26 0 -37 -5 -41 -95
-68 l-65 -21 66 1 c74 1 109 -8 109 -26 0 -9 -17 -10 -67 -5 -108 12 -388 -25
-469 -60 -51 -23 -64 -25 -64 -12 0 20 134 59 277 81 37 6 86 19 108 29 22 11
64 30 93 42 49 21 82 50 82 72 0 5 -107 7 -238 5 -262 -3 -263 -4 -289 -65
-14 -35 -27 -41 -40 -20 -4 7 -26 18 -48 24 -22 6 -65 18 -95 26 -83 23 -280
32 -304 14 -18 -13 -17 -14 9 -35 33 -26 26 -27 -35 -6 -26 9 -68 37 -101 69
-50 47 -62 54 -112 60 -72 9 -238 -10 -292 -34 -33 -15 -45 -27 -58 -63 -11
-28 -27 -49 -43 -57 -31 -14 -91 -15 -99 -1 -3 6 5 10 19 10 46 0 76 19 92 56
8 20 14 37 12 39 -6 5 -138 11 -138 5 1 -10 25 -37 44 -47 15 -9 16 -11 3 -16
-9 -3 -31 4 -49 16 -30 20 -34 29 -42 90 l-9 68 -36 -5 c-20 -3 -110 0 -201 8
-91 7 -166 12 -167 11 -1 0 2 -18 8 -40 8 -28 8 -50 -2 -82 -12 -45 -32 -53
-37 -15 -3 19 -5 20 -37 6 -19 -7 -41 -11 -49 -8 -10 4 -16 1 -16 -9 0 -18 46
-57 67 -57 20 0 10 -24 -11 -28 -30 -6 -74 19 -84 47 -14 41 -60 90 -106 113
-32 16 -57 21 -117 20 -139 -3 -229 -33 -244 -82 -3 -9 -15 -26 -28 -37 -25
-24 -87 -41 -87 -24 0 6 6 11 14 11 7 0 20 7 27 16 13 15 2 16 -126 10 -77 -4
-171 -12 -208 -17 -53 -8 -71 -8 -83 2 -22 18 -329 24 -457 9 -128 -15 -172
-29 -172 -55 0 -19 6 -20 105 -17 73 2 100 0 90 -8 -11 -7 7 -10 63 -10 50 0
76 -4 72 -10 -3 -5 -37 -10 -75 -10 -77 0 -161 -15 -203 -37 -15 -7 -32 -11
-38 -7 -19 12 9 28 79 46 37 9 59 17 50 17 -9 1 -43 -6 -74 -14 -81 -21 -95
-10 -124 102 -13 52 -28 61 -127 73 -71 9 -79 8 -97 -10 -20 -19 -20 -20 -1
-34 18 -13 18 -15 2 -40 -24 -35 -15 -33 47 14 44 34 76 49 76 37 0 -1 -9 -28
-20 -58 -25 -72 -17 -107 24 -100 5 1 22 -1 38 -4 31 -7 29 -25 -3 -25 -28 0
-79 -28 -79 -43 0 -18 62 -97 76 -97 6 0 40 23 74 50 34 28 69 50 76 50 17 0
18 -22 2 -38 -9 -9 4 -12 58 -12 38 0 94 -7 124 -15 30 -9 99 -18 152 -22 87
-5 100 -4 133 16 45 26 65 27 65 1 0 -17 3 -18 26 -10 14 6 153 10 320 10 162
0 294 2 294 4 0 2 -7 17 -15 32 -8 16 -15 35 -15 42 0 18 21 14 27 -5 3 -10
27 -36 55 -58 27 -22 67 -54 89 -72 22 -18 45 -30 53 -27 8 3 18 -7 26 -26 21
-50 20 -29 0 34 -28 84 -55 123 -108 153 -52 29 -92 62 -92 75 0 16 155 -73
183 -105 49 -56 87 -171 87 -261 l0 -31 -22 42 c-12 23 -25 40 -30 37 -4 -3
-11 2 -14 10 -3 9 -26 25 -50 35 -24 11 -54 29 -66 41 -23 22 -68 44 -75 37
-7 -7 44 -135 60 -151 46 -46 87 -106 87 -126 0 -22 -1 -22 -18 -7 -26 24 -32
21 -23 -11 15 -52 39 -87 106 -160 l68 -73 13 26 c21 41 25 46 34 40 5 -3 4
-17 -2 -31 -9 -20 -9 -27 0 -33 10 -6 7 -24 -9 -76 -25 -82 -27 -158 -5 -243
11 -42 16 -98 15 -168 -1 -91 -3 -105 -18 -102 -13 3 -16 15 -13 78 2 41 -4
116 -13 165 -19 102 -20 169 -4 227 6 23 7 44 2 47 -5 3 -19 21 -32 38 -12 18
-43 56 -67 85 -58 67 -103 155 -111 216 -3 27 -15 57 -28 72 -37 42 -55 73
-55 95 0 28 -35 60 -80 73 -111 33 -428 43 -531 17 -33 -9 -64 -13 -70 -9 -6
3 -22 0 -36 -7 -19 -10 -28 -11 -44 -1 -10 7 -30 10 -43 6 -14 -3 -73 3 -133
15 -59 11 -151 23 -203 27 -94 7 -96 6 -145 -24 -64 -39 -141 -43 -235 -12
-113 37 -110 35 -110 80 0 34 -4 42 -30 55 -17 9 -30 22 -30 30 0 8 -11 25
-25 39 -14 14 -25 32 -25 41 0 8 -4 15 -8 15 -4 0 -13 20 -20 45 -13 48 -1 95
23 95 7 0 15 21 19 48 8 54 19 72 59 90 15 6 38 17 51 23 27 12 46 48 46 84 0
25 -41 62 -120 108 -55 32 -85 77 -75 115 3 15 36 55 72 90 l66 63 -6 65 c-2
35 -2 64 2 63 10 -1 74 -92 85 -121 11 -31 -1 -60 -57 -130 -43 -54 -39 -80
22 -140 28 -28 53 -59 57 -70 3 -10 10 -18 15 -18 16 0 0 83 -26 134 -13 25
-21 55 -18 65 3 11 31 43 63 71 68 58 77 78 56 119 -20 38 -20 65 -1 81 13 11
15 8 15 -13 0 -16 16 -44 41 -73 33 -39 40 -52 37 -82 -2 -28 -10 -41 -37 -59
-43 -29 -54 -21 -18 13 30 27 35 69 13 99 -12 17 -13 16 -20 -10 -4 -16 -32
-52 -62 -81 -32 -31 -54 -61 -54 -73 0 -12 12 -44 26 -72 32 -63 30 -118 -4
-135 -15 -8 -20 -14 -12 -19 6 -4 18 -1 26 6 30 25 45 68 42 128 -2 47 2 64
17 82 25 27 82 64 115 73 59 18 80 31 85 58 4 15 1 36 -5 47 -8 15 -8 27 0 41
14 26 30 26 30 -1 0 -12 11 -43 25 -71 14 -27 25 -60 25 -72 0 -30 -42 -67
-116 -104 -50 -25 -63 -38 -80 -74 -10 -24 -37 -63 -59 -87 -22 -25 -35 -42
-30 -40 54 26 66 37 91 86 38 76 69 90 163 75 107 -18 116 -17 162 29 22 22
43 38 46 36 2 -3 -5 -23 -16 -46 -12 -22 -21 -46 -21 -54 0 -7 -15 -24 -32
-37 -32 -24 -70 -28 -158 -18 -18 2 -28 -4 -38 -26 -9 -18 -31 -36 -63 -50
-27 -11 -49 -24 -49 -28 0 -19 54 -19 100 0 54 23 106 18 140 -13 15 -14 29
-16 65 -11 37 6 50 14 68 42 22 33 47 45 47 22 0 -14 -46 -77 -74 -101 -17
-14 -37 -17 -106 -16 -47 2 -101 -1 -121 -5 -41 -9 -81 7 -123 49 -28 28 -51
32 -59 11 -6 -16 11 -36 31 -36 48 0 113 -60 109 -100 -1 -8 5 -35 12 -59 l13
-44 121 8 c67 4 201 11 297 14 149 5 183 3 228 -11 43 -14 67 -15 135 -8 45 5
136 12 202 16 110 6 122 9 143 31 41 45 97 61 232 68 138 8 158 4 214 -45 34
-30 39 -32 94 -25 81 9 87 14 75 63 -10 38 -8 43 16 66 l27 26 200 0 c169 0
204 -3 234 -18 32 -15 35 -20 31 -52 -9 -79 -12 -75 54 -75 33 0 65 -4 71 -7
6 -4 34 2 63 12 59 23 195 39 291 34 66 -3 131 -24 157 -50 10 -10 39 -14 101
-14 47 0 111 -4 141 -10 31 -5 101 -17 156 -26 55 -10 108 -21 119 -27 14 -7
24 -3 45 16 53 50 61 51 296 49 121 -1 238 -4 260 -7 l40 -5 -42 17 c-69 28
-90 92 -49 148 11 16 26 20 71 20 61 0 75 -10 75 -58 0 -23 3 -27 23 -23 12 3
44 8 70 11 l48 6 -7 72 c-7 75 -28 135 -51 144 -19 8 -18 15 36 152 48 123 81
249 81 311 0 30 16 41 25 18z m-2433 -765 c15 -15 34 -44 42 -63 11 -25 15
-29 16 -14 0 26 19 44 45 44 18 -1 18 -1 3 -11 -23 -13 -23 -32 2 -54 11 -10
20 -22 20 -27 0 -12 -44 -10 -58 4 -9 9 -12 3 -12 -30 0 -31 -4 -42 -15 -42
-9 0 -15 9 -15 23 0 50 -30 121 -66 158 -20 20 -33 42 -30 48 9 14 32 2 68
-36z m258 18 c0 -6 -14 -30 -30 -55 -38 -56 -63 -114 -56 -132 3 -9 20 -14 43
-14 28 0 34 -3 23 -10 -20 -13 -76 -13 -100 0 -15 8 -17 16 -11 38 12 42 50
113 80 149 25 31 51 43 51 24z m-290 -161 c0 -14 -35 -30 -69 -30 -31 0 -51
17 -33 29 17 11 102 12 102 1z m-1212 -79 c-2 -20 -16 -32 -61 -55 -31 -16
-59 -27 -62 -24 -3 2 16 20 41 38 42 30 46 36 41 66 -3 17 -2 35 1 39 12 12
43 -38 40 -64z m3052 39 c0 -5 -22 -10 -50 -10 -27 0 -50 5 -50 10 0 6 23 10
50 10 28 0 50 -4 50 -10z m-2670 -20 c11 -7 5 -10 -25 -10 -22 0 -67 -7 -100
-15 -33 -8 -80 -15 -103 -15 -48 0 -112 -25 -112 -44 0 -7 5 -17 12 -24 7 -7
8 -12 2 -12 -31 0 -45 49 -20 70 43 35 309 74 346 50z m2261 -11 c41 -14 61
-28 54 -39 -3 -4 -24 -1 -47 7 -24 8 -84 15 -135 16 -141 3 -116 21 33 25 34
1 76 -3 95 -9z m-1423 -30 c75 -66 118 -150 131 -259 6 -46 9 -85 7 -88 -5 -4
-30 79 -42 138 -3 19 -13 48 -21 63 -16 33 -99 144 -114 152 -10 7 -12 25 -3
25 4 0 22 -14 42 -31z m330 -18 c-34 -30 -88 -144 -88 -186 0 -27 -22 -85 -33
-85 -5 0 -7 24 -5 53 6 78 70 209 117 240 47 32 52 16 9 -22z m737 39 c3 -5
-8 -15 -24 -22 -47 -20 -146 -113 -206 -193 -30 -40 -55 -78 -55 -84 0 -6 -7
-11 -15 -11 -23 0 -18 13 28 81 23 34 52 77 65 96 24 36 84 82 155 121 49 26
44 25 52 12z m471 -16 c4 -14 2 -30 -5 -37 -14 -14 -17 -10 -24 31 -5 24 -3
32 8 32 8 0 18 -12 21 -26z m-992 -319 c-7 -28 10 -55 33 -55 14 0 43 -23 43
-34 0 -3 -11 -6 -24 -6 -25 0 -36 -16 -36 -56 0 -31 -8 -30 -50 5 -34 28 -36
28 -67 13 -40 -19 -51 -11 -30 22 13 20 14 31 6 56 -14 38 -9 43 26 30 26 -10
32 -8 59 20 37 37 48 38 40 5z m-704 -20 c13 -14 35 -25 49 -26 14 -1 37 -4
50 -8 25 -7 24 -7 -12 -29 -31 -18 -36 -26 -31 -46 4 -19 1 -26 -15 -31 -11
-3 -29 -2 -39 4 -15 8 -22 4 -36 -20 -27 -45 -41 -38 -36 19 1 17 -5 24 -29
28 -17 4 -31 9 -31 13 1 18 20 32 41 29 16 -2 25 -12 31 -36 8 -28 11 -32 23
-22 8 7 24 10 36 7 15 -4 19 -1 17 11 -2 9 8 27 22 39 l25 22 -30 1 c-17 0
-37 6 -44 13 -10 10 -16 7 -32 -12 -22 -27 -25 -12 -8 38 13 38 19 38 49 6z
m407 -64 c-8 -41 12 -119 32 -126 21 -6 75 -64 67 -72 -8 -9 -93 45 -111 69
-15 23 -22 148 -9 161 13 13 26 -6 21 -32z m-587 -3 c51 -141 98 -199 176
-217 l39 -9 -53 -1 c-48 -1 -56 2 -93 37 -37 35 -58 80 -94 200 -10 35 11 26
25 -10z m514 10 c-4 -7 -10 -28 -13 -47 -5 -28 -15 -40 -55 -63 -27 -16 -50
-27 -52 -25 -2 2 14 20 36 41 25 23 40 46 40 61 0 13 8 29 18 34 23 14 35 14
26 -1z m44 -185 c-3 -26 -12 -31 -103 -63 -140 -50 -175 -69 -181 -100 -8 -38
-31 -88 -75 -162 l-40 -66 11 -104 c6 -56 20 -131 31 -165 l20 -62 -22 -39
c-21 -36 -22 -43 -11 -80 7 -23 19 -48 27 -56 8 -8 15 -19 15 -25 0 -6 16 -19
35 -28 19 -9 35 -20 35 -25 0 -12 -10 -9 -59 15 -33 17 -47 31 -58 62 -24 63
-26 94 -13 135 11 32 10 45 -4 81 -9 24 -23 93 -31 152 -17 123 -22 100 69
289 57 117 58 118 119 152 34 19 83 39 108 45 76 17 99 29 99 51 0 11 7 20 16
20 11 0 14 -8 12 -27z m342 -31 c59 -8 62 -10 40 -19 -32 -13 -106 -9 -125 7
-8 7 -15 22 -15 33 0 19 1 19 18 4 10 -9 47 -20 82 -25z m-171 -108 c47 -6 55
-11 81 -50 17 -23 30 -47 30 -52 0 -4 14 -24 31 -43 40 -43 69 -110 69 -157 0
-39 -28 -123 -44 -134 -7 -5 -6 -31 3 -80 28 -149 28 -158 -23 -261 -44 -91
-69 -123 -112 -145 -69 -36 -188 -56 -307 -54 -54 1 -77 7 -121 32 -30 16 -69
30 -85 30 -17 0 -31 5 -31 10 0 16 51 12 113 -10 31 -11 62 -20 68 -20 6 0 26
-7 45 -16 27 -13 42 -14 84 -5 28 6 65 11 83 11 18 0 45 7 61 15 15 8 36 15
45 15 19 0 81 53 81 70 0 6 18 37 41 68 40 57 40 57 34 127 -3 39 -11 96 -17
127 -10 53 -8 61 16 109 42 85 32 169 -34 270 -22 34 -40 67 -40 74 0 28 -36
45 -83 39 -63 -9 -114 3 -139 32 -26 29 -56 30 -133 4 -32 -11 -66 -20 -75
-20 -10 0 -29 -9 -44 -21 -14 -11 -26 -16 -26 -10 0 22 60 50 155 73 l100 25
61 -23 c34 -13 85 -26 113 -30z m-209 -116 c0 -4 -7 -11 -16 -16 -20 -11 -9
-34 13 -30 9 2 18 -3 21 -11 3 -9 0 -11 -7 -7 -7 4 -22 1 -34 -7 -21 -13 -87
-38 -114 -43 -31 -5 -71 -68 -52 -80 8 -4 8 -9 0 -17 -7 -7 -5 -19 6 -38 15
-25 15 -29 -6 -64 -11 -20 -23 -53 -25 -73 -2 -20 -7 -51 -11 -67 -5 -25 -2
-35 19 -54 14 -14 26 -30 26 -38 0 -22 71 -52 99 -41 17 6 27 5 32 -3 5 -8 16
-4 35 15 16 14 37 26 47 26 23 0 33 -26 17 -45 -7 -9 -11 -18 -8 -20 3 -3 11
1 18 10 17 21 4 64 -23 75 l-22 9 22 7 c26 7 21 24 -8 24 -15 0 -19 7 -19 35
0 39 -15 47 -24 13 l-6 -23 -15 23 c-20 27 -35 28 -35 2 0 -11 5 -20 11 -20 5
0 8 -4 4 -9 -3 -5 5 -11 17 -13 12 -2 23 -8 25 -14 6 -19 -120 -4 -139 16 -9
10 -22 20 -29 22 -6 2 -13 23 -16 45 -3 36 0 44 21 58 14 9 27 29 31 44 5 24
10 27 33 23 15 -2 33 -9 40 -15 21 -16 13 1 -10 23 -12 11 -32 20 -44 20 -22
0 -34 17 -34 49 0 22 37 71 53 71 7 0 4 -7 -5 -14 -27 -20 -22 -36 10 -36 38
0 46 9 26 32 -13 14 -14 21 -5 32 16 19 71 18 71 -1 0 -9 8 -12 28 -7 22 4 24
3 12 -6 -13 -10 -12 -11 3 -6 10 3 24 6 30 6 6 0 2 7 -9 15 -20 15 -13 18 23
9 24 -7 63 -64 63 -93 0 -24 -77 -94 -92 -85 -7 5 -4 10 10 15 25 9 67 85 52
94 -17 10 -32 -6 -27 -27 6 -22 -12 -58 -28 -58 -5 0 -19 -12 -32 -27 -15 -19
-22 -23 -23 -13 0 22 29 60 46 60 18 0 18 14 -1 50 -17 32 -49 39 -85 20 -20
-11 -20 -29 1 -108 11 -40 10 -45 -11 -67 -13 -14 -29 -25 -37 -25 -7 0 -13
-5 -13 -11 0 -8 16 -10 53 -6 70 9 135 -15 143 -52 3 -14 10 -38 15 -52 14
-37 -20 -113 -60 -133 -39 -21 -39 -20 -43 9 -4 36 -21 36 -32 -1 -13 -44 -82
-71 -137 -55 -21 7 -39 16 -39 21 0 6 -5 10 -11 10 -7 0 -31 21 -55 47 -49 52
-56 89 -24 118 11 10 20 13 20 7 0 -6 -4 -14 -10 -17 -5 -3 -10 -13 -10 -22 0
-15 2 -15 18 0 26 23 27 68 2 74 -23 6 -27 51 -8 86 16 29 20 131 7 189 -11
46 -10 48 26 92 31 36 46 45 81 51 23 3 47 11 52 18 11 13 112 17 112 5z m53
-20 c-3 -33 -3 -33 8 -6 11 28 41 46 47 29 2 -6 12 -11 22 -11 22 0 106 -68
131 -107 26 -39 24 -92 -5 -132 -13 -18 -27 -48 -31 -68 -8 -42 12 -128 38
-164 14 -20 17 -39 14 -91 -4 -69 -11 -88 -30 -88 -7 -1 -21 -15 -32 -32 -12
-19 -35 -37 -59 -45 -22 -7 -48 -21 -58 -30 -13 -12 -41 -18 -97 -20 -68 -2
-81 0 -96 17 -10 11 -26 20 -35 20 -18 0 -40 19 -40 34 0 6 5 5 12 -2 7 -7 20
-12 30 -12 11 0 32 -7 48 -15 38 -19 39 -4 3 31 l-28 26 30 -7 c17 -4 51 -7
77 -6 45 1 67 -16 52 -40 -8 -14 -24 -11 -24 6 0 8 -7 15 -15 15 -34 0 0 -49
35 -50 19 0 45 39 41 63 -3 24 15 21 33 -5 23 -32 34 -12 13 24 -18 31 -18 31
8 58 15 15 27 34 28 41 5 30 18 38 52 32 23 -4 35 -2 35 6 0 6 -7 11 -15 11
-8 0 -15 4 -15 9 0 6 -12 9 -27 8 -20 -2 -28 3 -31 18 -2 11 -11 28 -19 37 -9
10 -14 29 -11 46 2 16 -2 34 -9 41 -7 7 -10 17 -6 24 4 6 6 24 5 40 -2 19 8
41 33 71 l35 43 -20 38 c-11 22 -20 45 -20 52 0 16 -25 29 -71 37 -47 8 -87
49 -69 71 21 26 37 18 33 -17z m-529 -485 c-4 -21 -17 -65 -30 -98 -13 -33
-28 -79 -34 -101 -13 -53 -59 -136 -71 -128 -11 7 -12 64 0 64 4 0 16 26 26
58 10 31 24 66 31 77 10 16 27 69 50 153 2 6 10 12 19 12 13 0 15 -7 9 -37z
m1030 -182 c26 -57 27 -66 25 -200 -1 -110 1 -145 13 -163 42 -65 92 -311 103
-513 7 -127 22 -219 50 -320 33 -112 53 -221 65 -354 6 -63 15 -122 20 -132
13 -23 13 -25 -6 -44 -15 -15 -15 -17 0 -34 9 -10 13 -21 10 -24 -4 -4 2 -14
13 -24 29 -26 43 -130 43 -320 0 -157 -10 -250 -49 -478 -35 -207 -35 -212 5
-272 19 -29 43 -58 53 -65 10 -7 23 -23 30 -35 6 -13 24 -26 39 -29 15 -4 50
-26 77 -49 52 -44 78 -57 185 -97 49 -18 66 -29 68 -45 3 -18 -8 -27 -53 -49
-51 -25 -59 -27 -88 -15 -56 24 -91 25 -110 3 -15 -16 -27 -18 -95 -14 -59 3
-82 9 -99 24 -16 15 -35 20 -70 20 -41 -1 -255 -10 -318 -14 -11 0 -103 2
-205 5 -367 13 -1183 7 -1223 -8 -10 -4 -28 0 -43 10 -19 12 -29 13 -39 5 -7
-6 -29 -8 -53 -4 -23 4 -42 2 -46 -4 -4 -7 -17 -7 -37 -2 -17 5 -40 6 -52 1
-12 -4 -44 -6 -72 -5 -40 2 -55 8 -73 29 -17 20 -20 30 -12 45 13 24 49 35 63
21 9 -9 6 -13 -11 -17 -27 -8 -28 -20 -3 -34 27 -14 29 -14 36 19 7 34 48 65
76 58 11 -3 20 1 24 12 6 20 85 55 98 42 5 -5 -4 -13 -22 -19 -17 -6 -31 -18
-31 -27 0 -9 -7 -29 -15 -44 -13 -26 -13 -30 4 -45 29 -26 53 -11 45 30 -5 25
-1 40 15 60 12 15 21 33 21 40 0 7 19 18 43 24 23 6 50 13 60 16 9 3 17 1 17
-4 0 -5 -18 -14 -39 -21 -32 -9 -43 -20 -60 -54 -25 -52 -27 -83 -5 -91 22 -8
34 1 34 27 0 37 28 67 61 67 35 0 60 12 112 54 32 25 40 28 47 16 13 -21 13
-25 -10 -45 -14 -12 -17 -25 -13 -46 7 -35 -12 -60 -41 -55 -74 15 -106 16
-106 2 0 -20 23 -26 106 -26 69 0 76 2 102 29 26 28 28 34 22 86 -3 30 -4 58
-1 60 15 16 27 -6 50 -92 12 -45 42 -73 76 -73 59 0 90 75 40 98 -19 9 -26 21
-31 60 -6 45 -8 48 -30 44 -30 -6 -30 -5 5 136 17 64 40 158 52 207 12 50 41
131 65 180 24 50 64 143 90 208 43 110 46 123 46 213 0 58 -4 100 -11 107 -16
16 -13 64 8 132 10 33 18 61 16 63 -6 6 -90 -40 -121 -67 -18 -14 -40 -33 -51
-41 -11 -8 -26 -25 -34 -37 -10 -15 -19 -19 -29 -13 -31 19 38 85 174 167 54
32 86 59 99 83 11 19 37 103 59 185 31 120 52 176 105 280 57 113 67 142 78
220 7 49 20 115 29 145 l16 56 37 -4 c35 -4 36 -5 16 -21 -27 -22 -63 -112
-63 -158 0 -62 -24 -134 -89 -268 -46 -94 -71 -163 -96 -264 -33 -131 -68
-221 -86 -221 -5 0 -9 -10 -9 -22 0 -13 -11 -53 -24 -91 l-24 -67 19 -63 c31
-101 26 -154 -30 -313 -27 -76 -65 -171 -84 -210 -36 -70 -80 -205 -92 -280
-3 -22 -13 -69 -23 -107 -15 -63 -15 -69 1 -96 9 -16 17 -43 17 -61 0 -23 9
-40 30 -60 24 -22 30 -36 30 -68 l0 -40 163 -6 c89 -3 299 -8 466 -10 299 -5
303 -5 298 15 -3 11 8 48 23 83 16 35 31 76 34 91 5 29 46 95 59 95 4 0 7 69
7 153 0 133 -3 158 -21 197 -12 25 -32 85 -45 134 -14 49 -33 105 -44 125 -71
132 -80 222 -32 346 35 91 36 131 6 161 -42 42 -84 145 -95 234 -6 47 -19 117
-29 155 -10 39 -24 97 -30 130 -7 33 -18 71 -26 85 -7 14 -29 60 -48 103 -19
43 -51 104 -70 136 -19 31 -40 79 -46 107 -6 27 -13 57 -16 67 -10 31 13 18
26 -15 30 -83 46 -115 65 -139 20 -26 79 -138 113 -219 21 -48 43 -129 62
-225 7 -33 16 -68 21 -77 5 -10 16 -55 24 -102 27 -155 84 -246 154 -246 30 0
26 -16 -9 -32 -16 -7 -30 -20 -30 -28 0 -8 -14 -56 -31 -105 -42 -125 -39
-177 23 -310 26 -55 50 -113 53 -130 4 -16 21 -73 37 -125 29 -91 31 -104 33
-290 2 -107 6 -203 10 -213 4 -9 3 -17 -2 -17 -18 0 -41 35 -46 68 -3 19 -8
36 -10 39 -9 8 -24 -30 -37 -92 -7 -33 -19 -69 -26 -80 -21 -29 -17 -63 8 -76
22 -12 165 -7 201 6 24 10 23 67 -3 90 -23 21 -26 35 -7 35 15 0 168 -101 215
-142 27 -23 42 -28 85 -28 31 0 62 6 73 14 18 14 17 15 -12 14 -40 -1 -103 63
-104 105 0 36 13 34 27 -3 9 -25 17 -30 43 -30 34 0 89 -25 106 -48 13 -18 44
-9 44 11 0 25 -27 38 -87 44 -63 6 -73 14 -72 53 l1 25 11 -28 c8 -19 18 -27
36 -27 25 0 24 1 -13 39 -24 25 -44 37 -56 34 -18 -5 -61 41 -116 126 l-29 45
-5 -64 c-4 -53 -8 -65 -24 -68 -18 -4 -19 2 -13 104 3 60 19 186 35 279 66
372 76 625 31 772 -9 29 -14 32 -38 27 -35 -7 -42 3 -47 69 -2 40 1 56 15 72
17 18 18 29 10 125 -11 130 -22 193 -59 340 -30 123 -54 265 -47 277 14 23
-38 392 -69 484 -8 26 -31 73 -51 105 -57 93 -73 130 -73 169 0 41 17 47 26 8
23 -104 43 -122 45 -40 4 137 2 164 -14 196 -18 36 -22 71 -9 71 5 0 21 -27
36 -59z m-491 2 c-7 -2 -19 -2 -25 0 -7 3 -2 5 12 5 14 0 19 -2 13 -5z m246
-149 c-8 -10 -33 -26 -56 -36 -24 -10 -43 -22 -43 -26 0 -17 -68 -46 -108 -47
-23 0 -42 3 -42 6 0 17 40 37 84 43 27 3 57 12 65 20 9 8 28 17 43 21 14 4 34
15 44 26 21 23 33 16 13 -7z m-569 -24 c8 -16 53 -27 127 -33 27 -2 21 -12
-16 -25 -16 -6 -34 -6 -42 -1 -8 5 -24 9 -37 9 -24 0 -85 57 -76 71 7 12 33
-1 44 -21z m-340 -3 c0 -7 -4 -38 -10 -68 -22 -122 -22 -121 -2 -143 26 -28
35 -56 19 -56 -7 0 -18 5 -23 10 -8 8 -21 -15 -42 -72 -66 -171 -78 -296 -52
-534 14 -132 7 -215 -31 -362 -10 -41 -19 -99 -19 -129 0 -48 -2 -53 -21 -53
-21 0 -22 3 -16 78 3 42 17 124 32 182 27 102 28 109 19 265 -11 204 -8 336
11 424 15 70 67 200 85 211 6 4 5 18 -2 38 -19 49 16 222 44 222 4 0 8 -6 8
-13z m252 -57 c2 -7 41 -17 86 -23 78 -10 81 -11 65 -29 -23 -26 -56 -23 -150
13 -21 8 -53 66 -53 93 1 12 45 -35 52 -54z m448 46 c0 -2 -20 -11 -45 -19
-45 -16 -56 -12 -33 11 11 11 78 18 78 8z m-130 -31 c7 -8 9 -23 5 -36 l-7
-22 -19 24 c-10 13 -19 30 -19 37 0 17 25 15 40 -3z m330 -35 c-18 -18 -20
-24 -9 -32 11 -8 10 -9 -3 -5 -9 3 -24 -3 -34 -14 -20 -22 -62 -25 -89 -6 -27
20 -10 36 33 30 30 -4 44 1 77 25 45 34 58 35 25 2z m-184 -61 c24 -16 47 -43
58 -67 21 -47 45 -56 156 -54 l75 1 -55 -10 c-30 -5 -59 -14 -64 -19 -13 -13
-63 -13 -71 0 -3 6 -13 10 -21 10 -17 0 -19 -41 -2 -58 15 -15 -7 -42 -35 -42
-36 0 -67 -39 -67 -83 0 -39 0 -39 -31 -33 -18 3 -38 1 -45 -5 -8 -6 -21 -8
-30 -5 -9 4 -23 1 -31 -6 -12 -10 -18 -9 -29 6 -11 16 -16 17 -29 6 -14 -12
-18 -11 -26 1 -5 8 -9 24 -9 36 0 21 -51 73 -71 73 -31 0 -40 56 -30 170 2 26
71 90 97 90 12 0 25 4 28 9 3 5 48 8 99 7 83 -1 98 -4 133 -27z m-447 -7 c61
-1 81 -13 61 -37 -14 -17 -56 -20 -65 -5 -3 6 -18 10 -32 10 -14 0 -34 10 -44
22 -26 29 -24 43 4 26 12 -8 46 -15 76 -16z m709 -17 c-15 -14 -30 -25 -34
-25 -4 0 -27 -9 -50 -20 -40 -20 -45 -20 -80 -5 -29 12 -35 18 -26 27 9 9 20
9 46 0 35 -13 37 -12 121 31 45 23 53 20 23 -8z m-668 -62 c8 -8 -25 -23 -51
-23 -25 0 -45 21 -32 34 7 6 74 -3 83 -11z m-100 -97 c0 -7 12 -34 26 -60 22
-39 26 -61 28 -129 1 -97 -19 -168 -94 -324 -28 -57 -59 -130 -70 -162 -25
-76 -26 -127 -1 -56 23 64 85 165 175 285 90 121 114 164 124 231 9 53 9 53
20 26 7 -16 12 -37 12 -48 0 -42 -47 -128 -122 -224 -54 -67 -98 -139 -137
-220 -51 -104 -61 -135 -76 -232 -16 -97 -21 -113 -37 -113 -21 0 -22 5 -7
106 9 61 9 78 -1 84 -21 13 -3 125 35 215 18 44 52 113 74 154 23 41 41 80 41
87 0 7 10 39 21 70 25 66 23 167 -6 244 -26 72 -28 80 -16 80 6 0 11 -6 11
-14z m882 -8 c-6 -6 -31 -11 -54 -10 -53 2 -100 -24 -125 -70 -14 -26 -18 -55
-17 -138 0 -107 1 -111 64 -283 14 -40 24 -103 31 -200 6 -78 17 -171 25 -206
15 -66 66 -169 89 -177 35 -14 105 -155 105 -212 0 -29 -31 10 -66 84 -19 40
-47 83 -63 97 -38 31 -81 101 -98 157 -8 25 -20 124 -28 220 -12 144 -20 190
-44 261 -39 111 -59 276 -42 343 14 57 46 108 80 129 32 19 162 24 143 5z
m-492 -223 c18 -22 5 -45 -25 -43 -14 1 -25 6 -25 11 0 4 -4 5 -10 2 -16 -10
-12 7 7 27 20 22 36 23 53 3z m-534 -914 c5 -85 4 -92 -13 -89 -15 3 -18 15
-21 78 -2 41 0 86 3 99 12 45 25 6 31 -88z m-96 17 c29 -47 26 -109 -6 -147
-14 -16 -31 -49 -37 -73 -8 -26 -20 -44 -30 -46 -35 -7 -18 51 38 134 30 45
32 86 4 130 -18 29 -18 34 -5 34 9 0 25 -15 36 -32z m-160 11 c0 -6 -11 -43
-25 -81 -27 -76 -32 -143 -13 -195 8 -22 9 -37 3 -41 -6 -4 -11 -16 -12 -27
-1 -11 -7 -78 -14 -149 -13 -139 -8 -272 16 -426 33 -209 29 -441 -7 -448 -28
-5 -39 30 -27 88 12 57 6 258 -11 350 -24 136 -29 259 -14 417 8 86 20 169 28
183 11 23 11 30 -1 46 -24 32 -13 157 21 232 16 34 35 62 42 62 8 0 14 -5 14
-11z m1406 -271 c57 -59 78 -99 109 -202 36 -118 36 -232 -1 -395 -14 -64 -27
-117 -29 -119 -1 -2 -1 78 1 177 4 167 3 182 -15 198 -10 10 -29 40 -41 66
-21 45 -96 119 -147 146 -27 14 -30 31 -6 31 45 0 162 -100 191 -164 20 -44
23 -27 7 41 -20 86 -57 162 -99 206 -20 20 -36 42 -36 47 0 22 28 8 66 -32z
m-1110 -53 c38 -26 54 -76 53 -162 -1 -43 -3 -69 -6 -58 -2 11 -11 37 -19 58
-8 20 -14 50 -14 65 0 62 -59 115 -80 72 -71 -141 -109 -275 -111 -387 0 -37
-7 -90 -14 -118 -12 -48 -13 -46 -14 80 -1 159 17 266 59 351 50 103 97 134
146 99z m-236 -34 c0 -16 -6 -46 -14 -67 -7 -22 -19 -100 -25 -174 -13 -135
-11 -162 19 -365 12 -80 5 -224 -11 -240 -9 -7 -10 -4 -6 12 5 23 -14 212 -33
310 -12 70 -13 299 -1 356 5 23 15 69 21 102 14 66 26 95 40 95 6 0 10 -13 10
-29z m28 -964 c3 -42 1 -47 -27 -61 -38 -20 -51 -20 -51 -1 0 8 4 15 9 15 21
0 41 33 41 67 0 53 24 36 28 -20z m-188 -2 c0 -8 -24 -27 -52 -41 -29 -15 -64
-35 -77 -45 -25 -20 -61 -25 -61 -10 0 12 51 49 115 83 58 31 75 34 75 13z"/>
<path d="M1112 6222 c-7 -22 -32 -57 -62 -87 -52 -51 -65 -89 -32 -97 38 -9
52 2 52 42 0 32 6 44 38 72 45 39 56 62 42 89 -16 28 -26 23 -38 -19z"/>
<path d="M5784 6203 c-15 -68 -37 -139 -58 -186 -38 -84 -39 -90 -10 -145 17
-33 28 -73 31 -116 3 -36 10 -66 15 -66 13 0 0 191 -18 249 -7 24 -11 48 -8
53 8 12 34 10 34 -4 0 -7 3 -8 9 -2 8 8 23 244 15 244 -2 0 -6 -12 -10 -27z"/>
<path d="M1512 6137 c-12 -12 -37 -27 -54 -33 -41 -14 -46 -30 -11 -37 44 -8
113 51 94 81 -5 8 -14 5 -29 -11z"/>
<path d="M5820 6078 c0 -7 -3 -80 -5 -163 -3 -82 -2 -143 1 -135 4 8 12 29 19
45 40 93 43 132 18 212 -15 49 -33 70 -33 41z"/>
<path d="M1323 5959 c2 -59 10 -68 21 -24 4 15 0 36 -9 53 -14 26 -15 26 -12
-29z"/>
<path d="M1603 5938 c5 -15 55 -14 71 2 7 7 -3 10 -33 10 -30 0 -41 -4 -38
-12z"/>
<path d="M1385 5849 c-31 -30 -24 -37 20 -17 14 6 25 19 25 30 0 24 -9 21 -45
-13z"/>
<path d="M1495 5770 c-3 -5 3 -10 15 -10 11 0 23 -7 26 -15 5 -11 21 -15 58
-14 28 0 44 3 36 6 -8 4 -21 14 -28 25 -14 20 -96 26 -107 8z"/>
<path d="M1149 5744 c-19 -13 -42 -23 -51 -23 -23 -1 -58 -49 -58 -80 0 -41
11 -71 26 -71 17 0 34 -32 34 -64 0 -19 6 -26 29 -31 32 -7 49 -34 29 -46 -19
-12 4 -31 33 -27 25 3 39 28 16 28 -17 0 -61 63 -70 101 -5 19 -2 31 10 40 12
11 17 11 20 2 4 -10 11 -9 34 2 28 15 31 19 33 60 1 11 6 20 11 20 6 0 10 -8
9 -17 -1 -19 57 -33 112 -26 24 2 29 8 32 35 2 24 -2 34 -18 43 -28 15 -36 6
-21 -24 15 -26 8 -46 -15 -46 -9 0 -14 11 -14 31 0 26 -3 29 -20 24 -20 -6
-21 -5 -25 40 -1 11 -3 27 -4 35 -2 25 -90 21 -132 -6z m115 -11 c9 -22 -10
-41 -25 -26 -13 13 -5 43 10 43 5 0 12 -8 15 -17z m-64 -41 c0 -11 -9 -27 -20
-37 -18 -16 -20 -16 -26 -1 -4 10 1 25 11 36 23 25 35 25 35 2z m105 -62 c-5
-8 -11 -8 -17 -2 -6 6 -7 16 -3 22 5 8 11 8 17 2 6 -6 7 -16 3 -22z m-165 -42
c0 -5 -10 -8 -22 -6 -26 3 -35 32 -17 54 10 12 14 10 25 -12 8 -14 14 -31 14
-36z m60 37 c0 -21 -5 -25 -27 -25 -25 1 -26 2 -10 14 9 7 17 18 17 25 0 6 5
11 10 11 6 0 10 -11 10 -25z"/>
<path d="M5477 5702 c-44 -27 -31 -60 33 -89 46 -20 58 -22 76 -9 12 9 38 12
81 8 43 -3 63 -1 63 7 0 9 -17 14 -50 13 -3 0 -35 -3 -71 -7 -55 -5 -69 -3
-83 11 -15 15 -15 18 -1 33 19 22 19 28 -3 40 -12 7 -26 5 -45 -7z"/>
<path d="M1315 5700 c3 -5 8 -10 11 -10 2 0 4 5 4 10 0 6 -5 10 -11 10 -5 0
-7 -4 -4 -10z"/>
<path d="M5963 5631 c4 -19 2 -31 -6 -34 -20 -7 0 -19 21 -13 39 13 39 76 0
76 -17 0 -20 -4 -15 -29z"/>
<path d="M5740 5620 c0 -6 7 -10 15 -10 8 0 15 2 15 4 0 2 -7 6 -15 10 -8 3
-15 1 -15 -4z"/>
<path d="M5806 5622 c-12 -19 29 -40 77 -40 43 1 48 3 45 22 -3 18 -11 21 -60
24 -31 2 -59 -1 -62 -6z"/>
<path d="M985 5560 c-7 -11 12 -51 29 -62 6 -4 21 -8 34 -8 17 0 22 6 22 25 0
19 -8 28 -36 40 -43 18 -41 18 -49 5z"/>
<path d="M5860 5530 c0 -5 5 -10 11 -10 5 0 7 5 4 10 -3 6 -8 10 -11 10 -2 0
-4 -4 -4 -10z"/>
<path d="M1175 5521 c-6 -11 9 -23 19 -14 9 9 7 23 -3 23 -6 0 -12 -4 -16 -9z"/>
<path d="M5732 5464 c-27 -19 -29 -44 -3 -44 12 0 26 12 35 30 17 34 5 40 -32
14z"/>
<path d="M5794 5443 c1 -26 4 -28 40 -28 26 0 42 6 50 17 13 22 10 24 -45 32
-45 7 -46 6 -45 -21z"/>
<path d="M1060 5451 c-8 -6 -17 -8 -21 -5 -4 2 -10 0 -13 -5 -8 -12 0 -17 39
-25 40 -8 64 6 46 28 -15 18 -29 20 -51 7z"/>
<path d="M1235 5396 c-22 -13 -31 -36 -15 -36 6 0 13 7 16 15 9 23 26 18 22
-7 -2 -19 -14 -26 -68 -39 -58 -14 -62 -17 -43 -28 31 -16 53 -14 102 9 51 25
58 41 34 74 -20 28 -20 29 -48 12z"/>
<path d="M5696 5375 c-8 -21 -2 -31 23 -38 13 -3 21 1 24 14 7 25 37 25 37 0
0 -18 2 -19 28 -5 15 7 35 14 45 14 9 0 17 4 17 10 0 5 -21 9 -47 8 -27 -1
-64 1 -84 6 -29 6 -37 5 -43 -9z"/>
<path d="M1073 5366 c6 -17 97 -21 97 -3 0 9 -15 13 -50 14 -34 0 -50 -3 -47
-11z"/>
<path d="M5835 5319 c-16 -10 -34 -21 -40 -23 -5 -2 -7 -7 -3 -11 8 -9 78 32
78 46 0 11 1 12 -35 -12z"/>
<path d="M5680 5306 c0 -19 46 -40 68 -31 14 5 14 8 1 20 -8 7 -26 17 -41 20
-22 6 -28 4 -28 -9z"/>
<path d="M1236 5280 c-29 -13 -46 -16 -69 -9 -33 9 -47 5 -31 -11 11 -11 135
-40 172 -40 l22 0 -20 40 c-23 45 -21 45 -74 20z"/>
<path d="M5805 5260 c-11 -5 -38 -9 -60 -9 -30 -1 -36 -4 -25 -11 23 -15 61
-11 100 10 35 19 23 27 -15 10z"/>
<path d="M5690 5200 c0 -33 70 -52 111 -30 28 16 25 43 -3 34 -25 -8 -26 -8
-75 2 -23 4 -33 3 -33 -6z"/>
<path d="M3848 5010 c-10 -11 -24 -20 -32 -20 -9 0 -13 -10 -12 -25 1 -20 6
-25 28 -25 15 0 30 -4 33 -10 11 -18 27 -11 20 9 -4 15 0 20 17 23 23 4 23 5
-4 16 -14 6 -28 20 -30 32 l-3 21 -17 -21z"/>
<path d="M3456 4506 c21 -15 30 -14 19 3 -3 6 -14 11 -23 11 -13 0 -13 -2 4
-14z"/>
<path d="M3417 4503 c-4 -3 -22 -8 -39 -10 -18 -1 -37 -11 -43 -20 -5 -9 -20
-26 -32 -38 -29 -28 -29 -85 0 -85 18 0 19 1 3 25 -17 25 -17 26 9 19 19 -5
25 -2 25 10 0 9 -4 16 -10 16 -5 0 -10 5 -10 10 0 6 11 8 27 4 19 -5 30 -2 40
11 10 15 16 16 25 7 18 -18 35 -15 41 7 5 21 -24 56 -36 44z"/>
<path d="M3470 4396 c0 -17 14 -29 23 -20 8 8 -3 34 -14 34 -5 0 -9 -6 -9 -14z"/>
<path d="M3586 4364 c-5 -12 -2 -15 10 -10 8 3 18 6 20 6 2 0 4 5 4 10 0 16
-27 11 -34 -6z"/>
<path d="M3400 4305 c0 -8 9 -15 20 -15 13 0 18 5 14 15 -4 8 -12 15 -20 15
-8 0 -14 -7 -14 -15z"/>
<path d="M3290 4256 c0 -26 25 -43 33 -22 5 12 -15 46 -27 46 -3 0 -6 -11 -6
-24z"/>
<path d="M3397 4213 c-14 -14 -6 -24 13 -18 12 4 27 3 33 -2 7 -4 4 0 -6 10
-21 18 -30 21 -40 10z"/>
<path d="M3270 4172 c0 -12 19 -26 26 -19 2 2 -2 10 -11 17 -9 8 -15 8 -15 2z"/>
<path d="M3368 4168 c-11 -9 -15 -23 -11 -45 l5 -31 29 33 c16 18 29 38 29 44
0 15 -32 14 -52 -1z"/>
<path d="M3270 4120 c0 -5 5 -10 10 -10 6 0 10 5 10 10 0 6 -4 10 -10 10 -5 0
-10 -4 -10 -10z"/>
<path d="M3394 4098 c-4 -6 0 -16 9 -23 9 -7 14 -15 10 -18 -3 -4 4 -7 17 -7
19 0 21 3 12 12 -7 7 -12 20 -12 30 0 20 -25 24 -36 6z"/>
<path d="M3564 4079 c-7 -12 12 -29 34 -29 15 0 16 12 0 28 -15 15 -25 15 -34
1z"/>
<path d="M3270 3995 c-10 -12 -9 -16 5 -21 17 -7 38 13 29 28 -8 12 -20 10
-34 -7z"/>
<path d="M3265 3950 c3 -5 11 -10 16 -10 6 0 7 5 4 10 -3 6 -11 10 -16 10 -6
0 -7 -4 -4 -10z"/>
<path d="M3345 3920 c-4 -6 3 -10 14 -10 25 0 27 6 6 13 -8 4 -17 2 -20 -3z"/>
<path d="M3460 3906 c0 -8 4 -17 9 -20 5 -4 7 3 4 14 -6 23 -13 26 -13 6z"/>
<path d="M3416 3895 c7 -16 -6 -20 -21 -6 -6 5 -19 5 -30 1 -18 -7 -18 -9 8
-19 33 -13 38 -13 55 -3 13 9 6 42 -9 42 -4 0 -6 -7 -3 -15z"/>
<path d="M3623 4504 c-8 -22 15 -43 27 -24 13 21 12 27 -5 34 -9 3 -18 -1 -22
-10z"/>
<path d="M3680 4474 c0 -5 8 -17 19 -26 10 -8 20 -21 23 -28 2 -7 10 -11 16
-9 8 3 -1 17 -23 39 -19 18 -35 30 -35 24z"/>
<path d="M3740 4375 c0 -8 4 -15 9 -15 5 0 11 7 15 15 3 9 0 15 -9 15 -8 0
-15 -7 -15 -15z"/>
<path d="M3717 4276 c-44 -53 -46 -66 -12 -66 29 0 33 15 8 29 -17 9 -17 10 2
17 28 10 55 35 55 51 0 23 -15 14 -53 -31z"/>
<path d="M3676 4175 c4 -8 15 -15 25 -15 10 0 19 7 19 15 0 9 -9 15 -25 15
-18 0 -23 -4 -19 -15z"/>
<path d="M3700 4100 c6 -11 17 -20 25 -20 8 0 15 9 15 20 0 15 -7 20 -25 20
-23 0 -24 -2 -15 -20z"/>
<path d="M3722 4049 c2 -7 10 -15 17 -17 8 -3 12 1 9 9 -2 7 -10 15 -17 17 -8
3 -12 -1 -9 -9z"/>
<path d="M3751 3937 c8 -7 21 -21 27 -32 11 -20 11 -20 12 1 0 24 -18 44 -39
44 -14 -1 -14 -2 0 -13z"/>
<path d="M2631 711 c-8 -5 -20 -7 -28 -4 -7 3 -13 -1 -13 -10 0 -21 42 -30 60
-12 17 18 2 39 -19 26z"/>
<path d="M2279 690 c-11 -6 -15 -18 -11 -35 7 -37 29 -31 34 10 4 37 2 40 -23
25z"/>
<path d="M4262 671 c4 -13 18 -16 19 -4 0 4 -5 9 -11 12 -7 2 -11 -2 -8 -8z"/>
<path d="M4700 673 c0 -6 -3 -18 -6 -27 -3 -9 -1 -16 5 -16 17 0 25 30 12 43
-8 8 -11 8 -11 0z"/>
<path d="M4525 660 c3 -5 11 -10 16 -10 6 0 7 5 4 10 -3 6 -11 10 -16 10 -6 0
-7 -4 -4 -10z"/>
<path d="M4750 639 c0 -5 5 -7 10 -4 6 3 10 8 10 11 0 2 -4 4 -10 4 -5 0 -10
-5 -10 -11z"/>
<path d="M3460 3530 c-109 -15 -132 -40 -134 -146 l-1 -71 34 -19 c19 -11 37
-26 41 -34 20 -44 29 -55 44 -52 9 2 19 -3 22 -11 4 -11 13 -13 37 -7 52 13
61 19 89 66 15 24 38 48 51 53 21 8 23 16 25 79 l3 70 -42 36 c-24 20 -53 36
-65 36 -12 0 -28 2 -36 4 -7 2 -38 0 -68 -4z m-52 -48 c2 -7 -2 -10 -12 -6 -9
3 -16 11 -16 16 0 13 23 5 28 -10z m182 3 c0 -3 -9 -18 -19 -33 -11 -15 -22
-38 -26 -50 -6 -22 -5 -23 15 -12 11 6 24 18 27 26 3 8 12 14 20 14 8 0 12 -4
9 -9 -3 -5 3 -20 14 -34 18 -23 19 -27 4 -57 -11 -20 -21 -29 -31 -26 -8 3
-23 6 -34 6 -12 0 -19 7 -19 20 0 13 -5 18 -15 14 -15 -6 -28 6 -85 80 -52 67
-33 79 24 16 35 -39 36 -39 47 -17 21 41 69 84 69 62z m-147 -87 c21 -26 23
-35 15 -54 -13 -29 -29 -35 -64 -25 -19 5 -30 16 -36 37 -7 25 -4 32 19 51 16
13 31 23 35 23 4 0 18 -14 31 -32z m86 -109 c13 -28 21 -52 19 -54 -7 -6 -108
-15 -108 -10 0 3 9 23 20 45 11 22 20 46 20 55 0 33 29 12 49 -36z"/>
<path d="M3490 3275 c0 -8 4 -15 10 -15 5 0 7 7 4 15 -4 8 -8 15 -10 15 -2 0
-4 -7 -4 -15z"/>
</g>
</svg>
